<svg width="63" height="63" viewBox="0 0 63 63" fill="none" xmlns="http://www.w3.org/2000/svg">
<circle cx="31.5352" cy="31.5488" r="31.1445" fill="#07E5CA"/>
<path d="M31.5554 42.8471C30.1349 42.8471 28.8636 42.5808 27.7415 42.0481C26.6193 41.5083 25.728 40.7697 25.0675 39.8322C24.4141 38.8947 24.0661 37.8223 24.0234 36.6149H27.8587C27.9297 37.5098 28.3168 38.2413 29.0199 38.8095C29.723 39.3706 30.5682 39.6511 31.5554 39.6511C32.3295 39.6511 33.0185 39.4735 33.6222 39.1184C34.2259 38.7633 34.7017 38.2697 35.0497 37.6376C35.3977 37.0055 35.5682 36.2846 35.5611 35.475C35.5682 34.6511 35.3942 33.9196 35.0391 33.2804C34.6839 32.6412 34.1974 32.1404 33.5795 31.7782C32.9616 31.4089 32.2514 31.2243 31.4489 31.2243C30.7955 31.2172 30.1527 31.3379 29.5206 31.5865C28.8885 31.835 28.3878 32.1618 28.0185 32.5666L24.4496 31.9806L25.5895 20.7306H38.2457V24.0332H28.8601L28.2315 29.818H28.3594C28.7642 29.3422 29.3359 28.948 30.0746 28.6355C30.8132 28.3159 31.6229 28.1561 32.5036 28.1561C33.8246 28.1561 35.0036 28.4686 36.0405 29.0936C37.0774 29.7115 37.8942 30.5637 38.4908 31.6504C39.0874 32.737 39.3857 33.9799 39.3857 35.3791C39.3857 36.8208 39.0518 38.1064 38.3842 39.2356C37.7237 40.3578 36.804 41.242 35.625 41.8883C34.4531 42.5275 33.0966 42.8471 31.5554 42.8471Z" fill="white"/>
</svg>
