<svg width="63" height="64" viewBox="0 0 63 64" fill="none" xmlns="http://www.w3.org/2000/svg">
<circle cx="31.5352" cy="31.873" r="31.1445" fill="#424242"/>
<path d="M23.9702 42.873V40.0179L31.5447 32.5925C32.2692 31.861 32.8729 31.2111 33.3558 30.6429C33.8388 30.0748 34.201 29.5243 34.4425 28.9917C34.6839 28.459 34.8047 27.8908 34.8047 27.2871C34.8047 26.5982 34.6484 26.0087 34.3359 25.5186C34.0234 25.0215 33.5938 24.638 33.0469 24.3681C32.5 24.0982 31.8786 23.9632 31.1825 23.9632C30.4652 23.9632 29.8366 24.1124 29.2969 24.4107C28.7571 24.7019 28.3381 25.1174 28.0398 25.6571C27.7486 26.1969 27.603 26.8397 27.603 27.5854H23.8423C23.8423 26.2005 24.1584 24.9966 24.7905 23.9739C25.4226 22.9512 26.2926 22.1593 27.4006 21.5982C28.5156 21.0371 29.794 20.7566 31.2358 20.7566C32.6989 20.7566 33.9844 21.03 35.0923 21.5769C36.2003 22.1238 37.0597 22.873 37.6705 23.8248C38.2884 24.7765 38.5973 25.8631 38.5973 27.0847C38.5973 27.9015 38.4411 28.704 38.1286 29.4924C37.8161 30.2807 37.2656 31.1543 36.4773 32.1131C35.696 33.0719 34.5987 34.2331 33.1854 35.5968L29.4247 39.4213V39.5705H38.9276V42.873H23.9702Z" fill="white"/>
</svg>
