<svg width="63" height="64" viewBox="0 0 63 64" fill="none" xmlns="http://www.w3.org/2000/svg">
<circle cx="31.5352" cy="31.873" r="31.1445" fill="#07E5CA"/>
<path d="M31.3004 43.1713C29.7663 43.1713 28.4027 42.9086 27.2095 42.383C26.0234 41.8574 25.0859 41.1259 24.397 40.1884C23.7081 39.2509 23.3423 38.1678 23.2997 36.9391H27.3054C27.3409 37.5286 27.5362 38.0435 27.8913 38.4838C28.2464 38.9171 28.7188 39.2544 29.3082 39.4959C29.8977 39.7374 30.5582 39.8581 31.2898 39.8581C32.071 39.8581 32.7635 39.7232 33.3672 39.4533C33.9709 39.1763 34.4432 38.7928 34.7841 38.3027C35.125 37.8127 35.2919 37.248 35.2848 36.6088C35.2919 35.9483 35.1214 35.3659 34.7734 34.8617C34.4254 34.3574 33.9212 33.9632 33.2607 33.6792C32.6072 33.3951 31.8189 33.253 30.8956 33.253H28.9673V30.2061H30.8956C31.6555 30.2061 32.3196 30.0748 32.8878 29.812C33.4631 29.5492 33.9141 29.1799 34.2408 28.704C34.5675 28.2211 34.7273 27.6635 34.7202 27.0314C34.7273 26.4135 34.5888 25.8773 34.3047 25.4228C34.0277 24.9611 33.6335 24.6024 33.1222 24.3468C32.6179 24.0911 32.0249 23.9632 31.343 23.9632C30.6754 23.9632 30.0575 24.084 29.4893 24.3255C28.9212 24.5669 28.4631 24.9114 28.1151 25.3588C27.767 25.7992 27.5824 26.3248 27.5611 26.9355H23.7578C23.7862 25.714 24.1378 24.6415 24.8125 23.7182C25.4943 22.7878 26.4034 22.0634 27.5398 21.5449C28.6761 21.0194 29.951 20.7566 31.3643 20.7566C32.8203 20.7566 34.0845 21.03 35.157 21.5769C36.2365 22.1167 37.071 22.8446 37.6605 23.7608C38.25 24.677 38.5447 25.6891 38.5447 26.7971C38.5518 28.0257 38.1896 29.0556 37.4581 29.8865C36.7337 30.7175 35.782 31.2608 34.603 31.5165V31.687C36.1371 31.9 37.3125 32.4682 38.1293 33.3915C38.9531 34.3077 39.3615 35.4476 39.3544 36.8113C39.3544 38.0328 39.0064 39.1266 38.3104 40.0925C37.6214 41.0513 36.6697 41.8042 35.4553 42.351C34.2479 42.8979 32.8629 43.1713 31.3004 43.1713Z" fill="white"/>
</svg>
