<svg width="63" height="63" viewBox="0 0 63 63" fill="none" xmlns="http://www.w3.org/2000/svg">
<circle cx="31.5352" cy="31.5488" r="31.1445" fill="#C50000"/>
<path d="M31.2259 42.8471C29.642 42.8471 28.2358 42.5808 27.0071 42.0481C25.7855 41.5154 24.8267 40.7875 24.1307 39.8642C23.4418 38.9338 23.1009 37.8791 23.108 36.7001C23.1009 35.7839 23.2997 34.9423 23.7045 34.1752C24.1094 33.4082 24.6563 32.769 25.3452 32.2576C26.0412 31.7392 26.8153 31.4089 27.6676 31.2669V31.1177C26.5455 30.8691 25.6364 30.2974 24.9403 29.4025C24.2514 28.5005 23.9105 27.46 23.9176 26.2811C23.9105 25.1589 24.223 24.1575 24.8551 23.2768C25.4872 22.3961 26.3537 21.7037 27.4545 21.1994C28.5554 20.688 29.8125 20.4324 31.2259 20.4324C32.625 20.4324 33.8714 20.688 34.9652 21.1994C36.0661 21.7037 36.9325 22.3961 37.5646 23.2768C38.2038 24.1575 38.5234 25.1589 38.5234 26.2811C38.5234 27.46 38.1719 28.5005 37.4688 29.4025C36.7727 30.2974 35.8743 30.8691 34.7734 31.1177V31.2669C35.6257 31.4089 36.3928 31.7392 37.0746 32.2576C37.7635 32.769 38.3104 33.4082 38.7152 34.1752C39.1271 34.9423 39.3331 35.7839 39.3331 36.7001C39.3331 37.8791 38.9851 38.9338 38.2891 39.8642C37.593 40.7875 36.6342 41.5154 35.4126 42.0481C34.1982 42.5808 32.8026 42.8471 31.2259 42.8471ZM31.2259 39.8002C32.0426 39.8002 32.7528 39.6618 33.3565 39.3848C33.9602 39.1007 34.429 38.7029 34.7628 38.1916C35.0966 37.6802 35.267 37.0907 35.2741 36.4231C35.267 35.7271 35.0859 35.1127 34.7308 34.5801C34.3828 34.0403 33.9034 33.6177 33.2926 33.3123C32.6889 33.0069 32 32.8542 31.2259 32.8542C30.4446 32.8542 29.7486 33.0069 29.1378 33.3123C28.527 33.6177 28.044 34.0403 27.6889 34.5801C27.3409 35.1127 27.1705 35.7271 27.1776 36.4231C27.1705 37.0907 27.3338 37.6802 27.6676 38.1916C28.0014 38.6958 28.4702 39.09 29.0739 39.3741C29.6847 39.6582 30.402 39.8002 31.2259 39.8002ZM31.2259 29.8606C31.8935 29.8606 32.483 29.7257 32.9943 29.4558C33.5128 29.1859 33.9212 28.8095 34.2195 28.3265C34.5178 27.8436 34.6705 27.286 34.6776 26.6539C34.6705 26.0289 34.5213 25.4821 34.2301 25.0133C33.9389 24.5375 33.5341 24.1717 33.0156 23.916C32.4972 23.6532 31.9006 23.5218 31.2259 23.5218C30.5369 23.5218 29.9297 23.6532 29.4041 23.916C28.8857 24.1717 28.4808 24.5375 28.1896 25.0133C27.9055 25.4821 27.767 26.0289 27.7741 26.6539C27.767 27.286 27.9091 27.8436 28.2003 28.3265C28.4986 28.8024 28.907 29.1788 29.4254 29.4558C29.951 29.7257 30.5511 29.8606 31.2259 29.8606Z" fill="white"/>
</svg>
