<svg width="63" height="63" viewBox="0 0 63 63" fill="none" xmlns="http://www.w3.org/2000/svg">
<circle cx="31.5352" cy="31.5488" r="31.1445" fill="#FF6529"/>
<path d="M31.4602 42.8471C30.4162 42.84 29.397 42.6589 28.4027 42.3038C27.4084 41.9416 26.5135 41.3556 25.718 40.546C24.9226 39.7292 24.2905 38.6461 23.8217 37.2967C23.353 35.9402 23.1222 34.2605 23.1293 32.2576C23.1293 30.3897 23.3281 28.7243 23.7259 27.2612C24.1236 25.7981 24.6953 24.5623 25.4411 23.5538C26.1868 22.5382 27.0852 21.764 28.1364 21.2314C29.1946 20.6987 30.3771 20.4324 31.6839 20.4324C33.0547 20.4324 34.2692 20.7022 35.3274 21.242C36.3928 21.7818 37.2521 22.5204 37.9055 23.4579C38.5589 24.3883 38.9638 25.4395 39.12 26.6113H35.2315C35.0327 25.7733 34.6243 25.1056 34.0064 24.6085C33.3956 24.1042 32.6214 23.8521 31.6839 23.8521C30.1712 23.8521 29.0064 24.5091 28.1896 25.823C27.38 27.1369 26.9716 28.9409 26.9645 31.2349H27.1136C27.4616 30.6099 27.9126 30.0737 28.4666 29.6262C29.0206 29.1788 29.6456 28.8343 30.3416 28.5929C31.0447 28.3443 31.7869 28.22 32.5682 28.22C33.8466 28.22 34.9936 28.5254 36.0092 29.1362C37.032 29.747 37.8416 30.5886 38.4382 31.661C39.0348 32.7264 39.3295 33.948 39.3224 35.3258C39.3295 36.7605 39.0028 38.0495 38.3423 39.193C37.6818 40.3294 36.7621 41.2243 35.5831 41.8777C34.4041 42.5311 33.0298 42.8542 31.4602 42.8471ZM31.4389 39.6511C32.2131 39.6511 32.9055 39.4629 33.5163 39.0865C34.1271 38.71 34.6101 38.2022 34.9652 37.563C35.3203 36.9238 35.4943 36.2065 35.4872 35.411C35.4943 34.6298 35.3239 33.9231 34.9759 33.291C34.6349 32.6589 34.1626 32.1582 33.5589 31.7889C32.9553 31.4196 32.2663 31.2349 31.4922 31.2349C30.9169 31.2349 30.3807 31.345 29.8835 31.5652C29.3864 31.7853 28.9531 32.0907 28.5838 32.4814C28.2145 32.8649 27.9233 33.3123 27.7102 33.8237C27.5043 34.3279 27.3977 34.8677 27.3906 35.443C27.3977 36.2029 27.5753 36.9025 27.9233 37.5417C28.2713 38.1809 28.7507 38.6923 29.3615 39.0758C29.9723 39.4593 30.6648 39.6511 31.4389 39.6511Z" fill="white"/>
</svg>
