<svg width="56" height="56" viewBox="0 0 56 56" fill="none" xmlns="http://www.w3.org/2000/svg">
<circle cx="27.7539" cy="28.1777" r="27.4883" fill="#FA5629"/>
<path d="M33.9883 15.7168H21.5273C18.0864 15.7168 15.2969 18.5063 15.2969 21.9473V34.4082C15.2969 37.8492 18.0864 40.6387 21.5273 40.6387H33.9883C37.4293 40.6387 40.2188 37.8492 40.2188 34.4082V21.9473C40.2188 18.5063 37.4293 15.7168 33.9883 15.7168Z" stroke="white" stroke-width="2" stroke-linecap="round" stroke-linejoin="round"/>
<path d="M34.6121 21.3242H34.6246M32.743 27.3927C32.8967 28.4298 32.7196 29.4889 32.2368 30.4195C31.7539 31.3501 30.9899 32.1047 30.0534 32.576C29.117 33.0474 28.0557 33.2115 27.0206 33.0449C25.9856 32.8783 25.0293 32.3896 24.288 31.6483C23.5467 30.907 23.058 29.9508 22.8914 28.9157C22.7249 27.8806 22.8889 26.8194 23.3603 25.8829C23.8316 24.9464 24.5863 24.1824 25.5169 23.6996C26.4474 23.2167 27.5066 23.0396 28.5436 23.1934C29.6015 23.3502 30.5808 23.8432 31.337 24.5993C32.0932 25.3555 32.5861 26.3349 32.743 27.3927Z" stroke="white" stroke-width="2" stroke-linecap="round" stroke-linejoin="round"/>
</svg>
