<svg width="67" height="17" viewBox="0 0 67 17" fill="none" xmlns="http://www.w3.org/2000/svg">
<path d="M0.34375 16.1035V0.103515H11.125V2.89258H3.72656V6.70508H10.5703V9.49414H3.72656V13.3145H11.1562V16.1035H0.34375ZM21.2285 6.7832V9.42383H13.9316V6.7832H21.2285ZM22.8516 2.89258V0.103515H35.9922V2.89258H31.0938V16.1035H27.75V2.89258H22.8516ZM39.8828 16.3301C39.1172 16.3301 38.4349 16.1973 37.8359 15.9316C37.237 15.6608 36.763 15.2624 36.4141 14.7363C36.0703 14.2051 35.8984 13.5436 35.8984 12.752C35.8984 12.0853 36.0208 11.5254 36.2656 11.0723C36.5104 10.6191 36.8438 10.2546 37.2656 9.97852C37.6875 9.70247 38.1667 9.49414 38.7031 9.35352C39.2448 9.21289 39.8125 9.11393 40.4063 9.05664C41.1042 8.98372 41.6667 8.91602 42.0938 8.85352C42.5208 8.78581 42.8307 8.68685 43.0234 8.55664C43.2161 8.42643 43.3125 8.23372 43.3125 7.97852V7.93164C43.3125 7.43685 43.1563 7.05404 42.8437 6.7832C42.5365 6.51237 42.099 6.37695 41.5312 6.37695C40.9323 6.37695 40.4557 6.50977 40.1016 6.77539C39.7474 7.03581 39.513 7.36393 39.3984 7.75977L36.3203 7.50977C36.4766 6.7806 36.7839 6.15039 37.2422 5.61914C37.7005 5.08268 38.2917 4.67122 39.0156 4.38476C39.7448 4.0931 40.5885 3.94727 41.5469 3.94727C42.2135 3.94727 42.8516 4.02539 43.4609 4.18164C44.0755 4.33789 44.6198 4.58008 45.0938 4.9082C45.5729 5.23633 45.9505 5.6582 46.2266 6.17383C46.5026 6.68424 46.6406 7.29622 46.6406 8.00977V16.1035H43.4844V14.4395H43.3906C43.1979 14.8145 42.9401 15.1452 42.6172 15.4316C42.2943 15.7129 41.9062 15.9342 41.4531 16.0957C41 16.252 40.4766 16.3301 39.8828 16.3301ZM40.8359 14.0332C41.3255 14.0332 41.7578 13.9368 42.1328 13.7441C42.5078 13.5462 42.8021 13.2806 43.0156 12.9473C43.2292 12.6139 43.3359 12.2363 43.3359 11.8145V10.541C43.2318 10.6087 43.0885 10.6712 42.9063 10.7285C42.7292 10.7806 42.5286 10.8301 42.3047 10.877C42.0807 10.9186 41.8568 10.9577 41.6328 10.9941C41.4089 11.0254 41.2057 11.054 41.0234 11.0801C40.6328 11.1374 40.2917 11.2285 40 11.3535C39.7083 11.4785 39.4818 11.6478 39.3203 11.8613C39.1589 12.0697 39.0781 12.3301 39.0781 12.6426C39.0781 13.0957 39.2422 13.4421 39.5703 13.6816C39.9036 13.916 40.3255 14.0332 40.8359 14.0332ZM52.5508 0.103515V16.1035H49.2227V0.103515H52.5508ZM58.2324 12.6504L58.2402 8.6582H58.7246L62.5684 4.10352H66.3887L61.2246 10.1348H60.4355L58.2324 12.6504ZM55.2168 16.1035V0.103515H58.5449V16.1035H55.2168ZM62.7168 16.1035L59.1855 10.877L61.4043 8.52539L66.6152 16.1035H62.7168Z" fill="#0A033C"/>
</svg>
