<svg width="128" height="26" viewBox="0 0 128 26" fill="none" xmlns="http://www.w3.org/2000/svg">
<path d="M11.8673 3.27861C12.1667 2.3573 13.4701 2.3573 13.7694 3.27861L15.4542 8.46387C15.5881 8.87589 15.972 9.15485 16.4053 9.15485H21.8574C22.8261 9.15485 23.2289 10.3945 22.4451 10.9639L18.0343 14.1685C17.6838 14.4232 17.5372 14.8745 17.671 15.2866L19.3558 20.4718C19.6552 21.3931 18.6007 22.1592 17.817 21.5898L13.4061 18.3852C13.0557 18.1305 12.5811 18.1305 12.2306 18.3852L7.81974 21.5898C7.03602 22.1592 5.98154 21.3931 6.28089 20.4718L7.96568 15.2866C8.09956 14.8745 7.9529 14.4232 7.60241 14.1685L3.19158 10.9639C2.40786 10.3945 2.81064 9.15485 3.77936 9.15485H9.23146C9.66468 9.15485 10.0486 8.87589 10.1825 8.46387L11.8673 3.27861Z" fill="#FFC107"/>
<path d="M37.3517 3.27861C37.651 2.3573 38.9544 2.3573 39.2538 3.27861L40.9386 8.46387C41.0725 8.87589 41.4564 9.15485 41.8896 9.15485H47.3417C48.3105 9.15485 48.7132 10.3945 47.9295 10.9639L43.5187 14.1685C43.1682 14.4232 43.0215 14.8745 43.1554 15.2866L44.8402 20.4718C45.1396 21.3931 44.0851 22.1592 43.3014 21.5898L38.8905 18.3852C38.54 18.1305 38.0654 18.1305 37.7149 18.3852L33.3041 21.5898C32.5204 22.1592 31.4659 21.3931 31.7653 20.4718L33.4501 15.2866C33.5839 14.8745 33.4373 14.4232 33.0868 14.1685L28.676 10.9639C27.8922 10.3945 28.295 9.15485 29.2637 9.15485H34.7158C35.1491 9.15485 35.533 8.87589 35.6669 8.46387L37.3517 3.27861Z" fill="#FFC107"/>
<path d="M62.8282 3.27861C63.1276 2.3573 64.431 2.3573 64.7304 3.27861L66.4151 8.46387C66.549 8.87589 66.933 9.15485 67.3662 9.15485H72.8183C73.787 9.15485 74.1898 10.3945 73.4061 10.9639L68.9952 14.1685C68.6448 14.4232 68.4981 14.8745 68.632 15.2866L70.3168 20.4718C70.6161 21.3931 69.5616 22.1592 68.7779 21.5898L64.3671 18.3852C64.0166 18.1305 63.542 18.1305 63.1915 18.3852L58.7807 21.5898C57.997 22.1592 56.9425 21.3931 57.2418 20.4718L58.9266 15.2866C59.0605 14.8745 58.9138 14.4232 58.5634 14.1685L54.1525 10.9639C53.3688 10.3945 53.7716 9.15485 54.7403 9.15485H60.1924C60.6256 9.15485 61.0096 8.87589 61.1434 8.46387L62.8282 3.27861Z" fill="#FFC107"/>
<path d="M88.3048 3.27861C88.6042 2.3573 89.9076 2.3573 90.2069 3.27861L91.8917 8.46387C92.0256 8.87589 92.4095 9.15485 92.8428 9.15485H98.2949C99.2636 9.15485 99.6664 10.3945 98.8826 10.9639L94.4718 14.1685C94.1213 14.4232 93.9747 14.8745 94.1085 15.2866L95.7933 20.4718C96.0927 21.3931 95.0382 22.1592 94.2545 21.5898L89.8436 18.3852C89.4932 18.1305 89.0186 18.1305 88.6681 18.3852L84.2572 21.5898C83.4735 22.1592 82.419 21.3931 82.7184 20.4718L84.4032 15.2866C84.5371 14.8745 84.3904 14.4232 84.0399 14.1685L79.6291 10.9639C78.8454 10.3945 79.2481 9.15485 80.2169 9.15485H85.669C86.1022 9.15485 86.4861 8.87589 86.62 8.46387L88.3048 3.27861Z" fill="#FFC107"/>
<path d="M113.789 3.27861C114.089 2.3573 115.392 2.3573 115.691 3.27861L117.376 8.46387C117.51 8.87589 117.894 9.15485 118.327 9.15485H123.779C124.748 9.15485 125.151 10.3945 124.367 10.9639L119.956 14.1685C119.606 14.4232 119.459 14.8745 119.593 15.2866L121.278 20.4718C121.577 21.3931 120.523 22.1592 119.739 21.5898L115.328 18.3852C114.978 18.1305 114.503 18.1305 114.152 18.3852L109.742 21.5898C108.958 22.1592 107.903 21.3931 108.203 20.4718L109.888 15.2866C110.021 14.8745 109.875 14.4232 109.524 14.1685L105.113 10.9639C104.33 10.3945 104.733 9.15485 105.701 9.15485H111.153C111.587 9.15485 111.971 8.87589 112.104 8.46387L113.789 3.27861Z" fill="#FFC107"/>
</svg>
