<svg width="56" height="56" viewBox="0 0 56 56" fill="none" xmlns="http://www.w3.org/2000/svg">
<circle cx="28.1367" cy="28.1777" r="27.4883" fill="#FA5629"/>
<path d="M39.7508 20.9608C38.8959 21.3494 37.9743 21.6048 37.0195 21.7269C37.9965 21.1385 38.7515 20.2058 39.1068 19.0844C38.1853 19.6396 37.1638 20.0282 36.0868 20.2502C35.2097 19.2954 33.9773 18.7402 32.5783 18.7402C29.9691 18.7402 27.8373 20.872 27.8373 23.5034C27.8373 23.8809 27.8817 24.2473 27.9595 24.5915C24.0068 24.3916 20.4872 22.493 18.1445 19.6174C17.7337 20.3169 17.5005 21.1385 17.5005 22.0045C17.5005 23.6588 18.3332 25.1244 19.6212 25.9571C18.8328 25.9571 18.1001 25.7351 17.4561 25.402V25.4353C17.4561 27.7447 19.0993 29.6766 21.2755 30.1096C20.5768 30.3008 19.8433 30.3275 19.1326 30.1874C19.4342 31.1339 20.0248 31.9621 20.8214 32.5555C21.618 33.149 22.5806 33.4779 23.5738 33.496C21.8902 34.8289 19.8032 35.5493 17.6559 35.539C17.2784 35.539 16.9009 35.5168 16.5234 35.4724C18.633 36.8269 21.1423 37.6152 23.8292 37.6152C32.5783 37.6152 37.3859 30.3539 37.3859 24.0585C37.3859 23.8476 37.3859 23.6477 37.3748 23.4368C38.3074 22.7706 39.1068 21.9268 39.7508 20.9608Z" fill="white"/>
</svg>
